<?xml version="1.0" standalone="no"?>
<!DOCTYPE svg PUBLIC "-//W3C//DTD SVG 20010904//EN"
 "http://www.w3.org/TR/2001/REC-SVG-20010904/DTD/svg10.dtd">
<svg version="1.0" xmlns="http://www.w3.org/2000/svg"
 width="263.000000pt" height="299.000000pt" viewBox="0 0 263.000000 299.000000"
 preserveAspectRatio="xMidYMid meet">
<metadata>
Created by potrace 1.16, written by Peter Selinger 2001-2019
</metadata>
<g transform="translate(0.000000,299.000000) scale(0.100000,-0.100000)"
fill="#000000" stroke="none">
<path d="M921 2230 c-31 -115 -50 -230 -58 -350 l-6 -104 24 15 c13 9 90 53
171 99 81 45 146 86 144 89 -3 4 3 7 12 8 9 0 31 6 47 13 28 12 36 9 132 -49
58 -35 108 -59 114 -55 7 4 9 3 6 -3 -4 -6 35 -36 90 -68 l96 -58 -6 -171 c-4
-94 -7 -199 -7 -232 l0 -62 -164 -93 c-91 -51 -162 -98 -159 -103 3 -5 1 -6
-6 -2 -6 4 -27 -2 -46 -13 l-35 -20 -100 60 c-56 34 -105 57 -111 53 -7 -4 -9
-3 -6 3 4 6 -38 36 -94 69 l-101 59 4 230 c3 193 2 222 -8 180 l-12 -50 -2 80
c-1 44 -4 71 -7 60 -6 -31 -25 -65 -36 -65 -5 0 -51 -25 -102 -55 -52 -30 -99
-55 -104 -55 -6 0 -11 -4 -11 -10 0 -5 -7 -10 -15 -10 -8 0 -15 -5 -15 -11 0
-6 -9 -4 -22 5 -14 10 -26 12 -33 6 -8 -7 -21 -3 -41 11 -16 12 6 -13 48 -54
92 -92 235 -197 393 -292 156 -94 168 -104 55 -50 -52 25 -84 38 -72 27 23
-18 24 -20 12 -96 -6 -43 -10 -83 -7 -89 2 -7 1 -37 -3 -67 -4 -33 -3 -57 2
-61 6 -4 -13 -12 -42 -19 -39 -9 -54 -18 -60 -36 -5 -13 -17 -24 -26 -24 -10
0 -15 -3 -11 -6 9 -9 176 42 322 97 197 76 214 83 209 91 -2 3 0 9 6 13 5 3
10 2 10 -3 0 -6 8 -8 18 -5 13 3 56 -27 138 -96 65 -56 122 -101 125 -101 3 0
11 10 18 23 11 22 11 22 5 -3 -5 -19 -67 -185 -101 -268 -3 -8 0 -10 10 -7 8
4 21 -1 29 -9 14 -13 17 -12 28 12 64 138 133 464 130 612 -2 80 2 217 5 200
2 -8 7 -33 11 -55 6 -36 8 -37 13 -15 5 19 27 35 86 66 44 22 94 50 112 60 31
20 32 21 17 45 -9 13 14 -9 51 -49 l68 -73 21 20 c21 19 23 20 46 4 47 -31
-105 119 -195 192 -50 41 -156 115 -235 164 -186 115 -190 118 -100 75 61 -29
70 -31 46 -12 -26 22 -27 26 -17 62 5 22 8 42 6 46 -2 4 2 26 9 51 7 24 13 60
12 80 l-2 37 98 21 c95 22 97 23 88 46 -8 20 -5 25 18 34 24 9 22 10 -13 4
-135 -20 -335 -87 -497 -168 -51 -25 -94 -42 -96 -36 -2 5 -9 8 -17 5 -8 -3
-60 41 -127 106 -62 61 -123 113 -136 117 -19 5 -22 10 -17 34 4 16 4 29 2 29
-3 0 -14 -36 -26 -80z"/>
<path d="M1105 1851 l-170 -99 0 -207 0 -207 172 -99 171 -99 176 101 176 101
-2 205 -3 205 -165 95 c-91 52 -169 97 -175 98 -5 2 -86 -40 -180 -94z"/>
</g>
</svg>
